<svg xmlns="http://www.w3.org/2000/svg" height="1024" viewBox="0 0 2048 2048" width="1024">
<path d="M 525.538 90.4413 C 551.164 89.4467 580.077 90.0684 605.952 90.117 L 742.988 90.3925 L 1144.66 90.4286 L 1398.11 90.359 C 1468.02 90.3646 1537.63 86.5621 1606.48 100.786 C 1809.84 142.801 1959.76 327.239 1955.84 535.491 C 1955.54 551.115 1955.92 567.429 1955.86 583.16 L 1955.27 715.816 L 1955.9 1105.37 L 1955.91 1389.63 L 1955.83 1477.57 C 1955.82 1527.9 1956.71 1559.13 1946.47 1609.32 C 1931.02 1685.94 1894.9 1756.87 1842.01 1814.41 C 1759.18 1905.26 1647.73 1950.22 1526.56 1955.88 L 837.446 1955.76 L 630.38 1955.8 C 566.229 1955.85 504.054 1959.33 441.1 1946.44 C 363.177 1930.4 290.969 1893.79 231.977 1840.41 C 145.713 1761.07 97.151 1649.36 93.4405 1532.5 C 92.4664 1501.82 93.1481 1470.63 93.2302 1439.9 L 93.2902 1292.89 L 93.0362 873.426 L 93.0158 636.413 C 92.9764 570.694 88.1236 499.207 102.517 435.308 C 147.787 234.344 322.508 98.456 525.538 90.4413 z" fill="rgb(28,23,22)" transform="translate(0,0)"></path>
<path d="M 1452.41 100.518 C 1466.57 100.336 1480.73 100.229 1494.89 100.198 C 1709.26 99.89 1888.98 228.105 1936.78 441.572 C 1949.6 498.818 1945.87 558.677 1945.87 617.12 L 1945.66 818.72 L 1946.02 1512.79 C 1945.73 1721.88 1811.9 1890.57 1606.87 1936.13 C 1546.46 1949.55 1489.28 1945.85 1427.97 1945.88 L 1242.9 1945.97 L 595.5 1946 C 560.775 1946.01 520.808 1946.88 486.396 1943.34 C 390.769 1933.71 301.058 1892.55 231.388 1826.34 C 149.942 1747.09 103.739 1638.45 103.155 1524.82 C 102.192 1456.44 103.297 1386.66 103.195 1318.13 L 102.92 832.281 L 102.86 621.281 C 102.836 560.99 99.1895 500.058 111.908 441.312 C 128.921 361.468 168.404 288.151 225.704 230.003 C 285.711 168.301 365.429 128.271 449.107 109.757 C 502.199 98.011 557.33 100.874 611.638 100.881 L 782.472 100.971 L 1257.95 100.778 C 1322.77 101.111 1387.59 101.024 1452.41 100.518 z" fill="rgb(250,190,58)" transform="translate(0,0)"></path>
<path d="M 1092.03 115.082 C 1093.7 127.249 1097.3 183.479 1099.51 189.667 L 1100.24 188.438 C 1103.55 187.18 1164.9 187.222 1174.02 187.183 L 1333.19 187.164 C 1368.25 187.18 1402.47 186.72 1437.24 188.923 C 1628.95 201.068 1800.35 333.171 1841.53 523.786 C 1854.59 584.267 1852.1 630.574 1852.36 692.243 L 1852.74 862.475 C 1851.53 1045.71 1851.63 1228.95 1853.04 1412.19 C 1853.12 1450.36 1851.78 1482.52 1842.13 1519.87 C 1821.99 1597.81 1787.03 1667.49 1729.83 1724.78 C 1673.22 1782.43 1601.66 1823.18 1523.18 1842.43 C 1446.79 1861.46 1395.62 1857.61 1318.04 1857.62 L 1149.98 1857.87 L 627.23 1858.26 C 425.323 1858.18 260.182 1715.78 204.508 1524.24 C 189.139 1471.36 192.027 1416.64 192.021 1362.12 L 192.035 1232.89 L 191.968 855.532 L 192.187 699.611 C 192.234 660.643 190.518 619.281 194.562 580.205 C 215.295 379.916 378.06 217.869 576.194 190.524 C 605.292 186.508 636.698 187.954 666.105 187.882 L 787.217 187.714 L 1086.34 187.993 C 1089.47 163.901 1089.19 138.978 1092.03 115.082 z" fill="rgb(28,23,22)" transform="translate(0,0)"></path>
<path d="M 1092.03 115.082 C 1093.7 127.249 1097.3 183.479 1099.51 189.667 C 1106.98 256.814 1112.41 323.795 1189.34 342.453 C 1225.46 351.211 1262.67 351.358 1299.24 356.476 C 1288.83 358.632 1277.11 358.899 1266.48 360.061 C 1216.48 365.522 1157.48 367.803 1126.16 413.601 C 1119.6 423.295 1114.59 433.953 1111.32 445.191 C 1106.58 461.158 1104.32 481.48 1102.27 498.21 C 1098.77 527.991 1095.74 557.825 1093.17 587.701 C 1089.59 548.071 1085.33 467.847 1070.42 433.497 C 1063.76 417.896 1053.45 404.13 1040.34 393.368 C 1018.7 375.264 995.813 370.715 967.982 366.821 C 944.633 363.554 918.175 360.072 894.359 358.992 C 894.033 359.03 893.707 359.069 893.381 359.108 L 888.965 356.868 C 917.012 354.974 983.143 347.429 1007.62 338.751 C 1018.76 334.791 1029.17 329.002 1038.41 321.621 C 1077.63 290.09 1081.24 235.112 1086.34 187.993 C 1089.47 163.901 1089.19 138.978 1092.03 115.082 z" fill="rgb(254,254,254)" transform="translate(0,0)"></path>
<path d="M 893.381 359.108 C 886.091 359.476 879.24 358.778 872.05 357.782 L 872.069 357.274 C 878.419 356.805 882.602 356.41 888.965 356.868 L 893.381 359.108 z" fill="rgb(65,63,64)" transform="translate(0,0)"></path>
<path d="M 1464.45 355.088 C 1485.71 353.14 1489.82 367.733 1475.46 382.773 C 1449.43 410.037 1423.45 437.284 1397.29 464.425 L 1236.73 630.027 L 1184.02 684.932 C 1166.74 702.623 1130.13 728.994 1145.53 756.591 C 1148.67 762.128 1153.89 766.19 1160.02 767.885 C 1169.21 770.492 1184.16 767.331 1191.08 761.376 C 1214.64 741.09 1236.62 715.868 1258.8 694.183 L 1482.05 472.399 C 1495.93 458.583 1516.58 436.09 1532.04 423.03 C 1536.76 419.036 1549.38 422.588 1551.85 431.537 C 1553 435.747 1552.3 440.25 1549.91 443.905 C 1547.39 447.794 1529.45 465.195 1525.4 469.362 C 1501.77 494.006 1477.8 518.32 1453.49 542.294 L 1281.93 714.68 L 1248.15 748.671 C 1230.1 766.731 1186.39 801.212 1222.28 828.605 C 1231.03 835.377 1249.52 833.482 1258.02 827.172 C 1275.74 814.009 1291.8 794.378 1307.81 778.93 C 1372.29 716.401 1435.98 653.07 1498.88 588.953 L 1554.22 533.496 C 1566.96 520.59 1579.63 507.493 1592.56 494.851 C 1598.49 489.528 1605.42 482.628 1613.86 487.092 C 1620.88 490.804 1622.25 504.498 1617.49 509.985 C 1597.63 532.895 1575.25 554.243 1553.75 575.732 L 1359.07 770.743 L 1313.67 816.599 C 1304.34 825.933 1285.68 843.118 1279.49 853.205 C 1274.61 861.257 1273.2 870.938 1275.57 880.05 C 1280.82 900.401 1305.86 907.362 1319.05 897.042 C 1340.23 880.457 1365.7 851.765 1384.86 832.762 L 1486.88 732.447 C 1495.46 723.917 1504.03 715.272 1512.45 706.536 C 1560.97 656.201 1613.24 609.697 1664.15 561.855 C 1673.18 553.362 1687.84 552.765 1689.22 567.651 C 1690.19 578.094 1680.87 586.21 1674.98 593.553 C 1668.5 601.992 1662.13 610.914 1655.72 619.581 C 1619.93 667.093 1583.42 714.063 1546.22 760.475 C 1538.62 768.952 1526.75 785.69 1518.84 795.404 L 1420.45 916.456 C 1403.66 936.831 1388.22 960.79 1366.56 976.1 C 1308.69 1016.99 1240.13 979.498 1175.97 983.036 C 1103.48 987.035 1070.21 1031.7 1025.43 1080.65 C 971.575 1137.32 920.612 1195.07 867.824 1252.03 C 708.454 1421.89 550.387 1592.96 393.637 1765.23 C 360.277 1741.23 329.131 1711.9 304.672 1678.76 C 298.662 1670.62 292.828 1662.4 286.758 1654.29 C 309.239 1630.89 338.786 1604.45 362.822 1582 L 490.5 1463.27 C 599.416 1361.27 709.139 1260.14 819.657 1159.89 C 865.242 1118.18 910.549 1076.17 955.576 1033.87 C 975.452 1015.28 1006.21 988.727 1023.59 969.614 C 1035.17 956.696 1044.47 941.906 1051.11 925.875 C 1089.32 834.103 1014.11 771.799 1063.27 687.116 C 1075.05 666.835 1090.42 655.327 1107.9 640.627 L 1152.08 603.48 C 1211.6 553.731 1268.55 508.437 1328.91 460.081 L 1411.41 394.301 C 1422.84 385.221 1452.56 360.902 1464.45 355.088 z" fill="rgb(252,214,120)" transform="translate(0,0)"></path>
<path d="M 1836.67 685.804 L 1837.45 686.131 C 1838.43 682.757 1838.33 682.989 1840.8 680.473 L 1835.63 921.157 L 1825.39 1221.67 C 1823.51 1267.58 1822.56 1312.98 1819.61 1359 C 1816.39 1409.41 1816.23 1451.9 1801.59 1501.13 C 1778.84 1577.48 1734.91 1651.41 1677.67 1706.84 C 1599.58 1782.46 1491.91 1832.83 1383.67 1843.26 C 1343.84 1847.1 1294.32 1845.26 1253.59 1845.36 L 1024.37 1844.99 C 1025.13 1844.01 1024.92 1844.59 1024.84 1843.2 C 1018.4 1841.08 1011.74 1846.58 1009.24 1839.68 L 1009.92 1838.4 C 1015.6 1838.25 1017.89 1838.32 1023.52 1836.82 L 1023.75 1835.83 C 1027.94 1834.3 1053.93 1831.94 1059.29 1831.41 L 1127.71 1824.56 C 1165.88 1820.78 1204.03 1816.76 1242.15 1812.5 C 1262.51 1810.39 1282.61 1808.78 1302.84 1806.14 C 1405.66 1792.73 1492.53 1761.48 1575.88 1699.09 C 1663.19 1633.74 1721.53 1546.5 1754.25 1442.63 C 1772.98 1383.16 1774.73 1336.64 1779.76 1275.84 L 1788.47 1178.89 C 1798.83 1064.58 1809.79 950.331 1821.35 836.14 L 1831.51 734.393 C 1832.89 720.854 1834.26 700.51 1836.37 687.551 L 1836.67 685.804 z" fill="rgb(250,190,58)" transform="translate(0,0)"></path>
<path d="M 935.719 1844.27 C 964.494 1842.06 995.665 1837.42 1023.75 1835.83 L 1023.52 1836.82 C 1017.89 1838.32 1015.6 1838.25 1009.92 1838.4 L 1009.24 1839.68 C 1011.74 1846.58 1018.4 1841.08 1024.84 1843.2 C 1024.92 1844.59 1025.13 1844.01 1024.37 1844.99 C 998.507 1845.04 973.571 1845.8 947.781 1846.29 C 941.195 1845.76 940.501 1847.28 935.719 1844.27 z" fill="rgb(252,214,120)" transform="translate(0,0)"></path>
<path d="M 1841.74 637.235 C 1842.23 648.861 1841.1 668.254 1840.8 680.473 C 1838.33 682.989 1838.43 682.757 1837.45 686.131 L 1836.67 685.804 C 1837.09 674.37 1839.3 647.946 1841.74 637.235 z" fill="rgb(252,214,120)" transform="translate(0,0)"></path>
<path d="M 947.781 1846.29 C 944.618 1847.98 897.568 1849.12 891.388 1848.18 L 891.431 1848.31 C 893.95 1847.32 930.772 1844.48 935.719 1844.27 C 940.501 1847.28 941.195 1845.76 947.781 1846.29 z" fill="rgb(128,110,92)" transform="translate(0,0)"></path>
<metadata><recraft-signature>{"signed_by": "recraft", "signature_b64": "tV3lProAUs4WTuOz89P0pcEXzwOGhJy7EdkWl2bHYIetLuK1fcMqP5MaCzwFZ+n+8zH9NhNsXL5AezEXdMQxBw==", "signing_algo": "Ed25519", "generation_timestamp": 1778424641, "identifier": "de619f6c-cb6a-425c-857a-acfcc62a1c36"}</recraft-signature></metadata></svg>